<svg version="1.2" xmlns="http://www.w3.org/2000/svg" viewBox="0 0 1920 1080" width="1920" height="1080">
	<title>MainScreen</title>
	<style>
		.s0 { fill: #ececff;stroke: #000000;stroke-miterlimit:100;stroke-width: 3 } 
		.s1 { fill: #ececff } 
	</style>
	<g id="Buttons">
		<path id="Shape 1" class="s0" d="m1658 995h246v69h-246z"/>
		<path id="NEXT DAY" class="s1" aria-label="NEXT DAY"  d="m1696.3 1013.1l6.2-0.7-0.7 21.6 0.5 11.9-5.8 1.3-15-24.2v11l0.8 13h-6.3l0.6-12.2-0.6-22.2 6-0.3 14.8 24.5zm32.5 33.8h-18.3l0.5-12.1-0.5-22.4h18.7l-0.5 5.4h-11.3l-0.3 8.8h10l-0.5 5.3h-9.7l-0.1 2 0.4 7.7h12.1zm31.6-3.4l-6.1 3.9-8.4-13-8.1 13-5.3-2.6 9.8-15-10.6-13.6 6.2-4 8.1 12.5 7.7-12.8 5.3 3.2-9.2 14.2zm9.5-26l-8.9 0.7 0.6-5.8h23.7l-0.5 5.8-8.7-0.8-0.2 16.5 0.6 13h-7l0.6-12.1zm37.4 30q-3.6 0-10.3-0.6l0.6-12.1-0.6-22.4h13.4q6.7 0 10.5 4.1 3.8 4 3.8 11.2 0 9.1-4.7 14.5-4.7 5.3-12.7 5.3zm1.3-29.7q-3.3 0-4.7 0.1l-0.5 16 0.4 8.1q4.2 0.3 5.6 0.3 4 0 6.2-3.2 2.3-3.2 2.3-9.3 0-6.1-2.2-9-2.2-3-7.1-3zm49 28.3l-7.2 1.1-2.4-9.8h-12l-2.6 9.5-6.4-0.5 4.4-12.1 6.7-21.5 8.9-0.7 6.5 21.4zm-11.2-13.9l-3.9-13.5h-0.7l-4.3 13.5zm22.4-12.4l3.7 7.4h0.6l3.7-6.8 3.7-8.2 6.1 0.9-4.6 8.3-6.5 12.7 0.6 12.9h-7l0.5-12-6.3-12.8-4.8-8.8 7-1.2z"/>
	</g>
</svg>